<svg xmlns="http://www.w3.org/2000/svg" viewBox="0 0 225.85 134.68"><defs><style>.cls-1,.cls-2{fill:#231f20;}.cls-2{font-size:18px;font-family:EdwardianScriptITC, Edwardian Script ITC;}</style></defs><g id="Layer_2" data-name="Layer 2"><g id="Layer_1-2" data-name="Layer 1"><path class="cls-1" d="M61.56,65.22a36.12,36.12,0,0,1-4.13,17.72,28,28,0,0,1-12,11.58q-7.91,4.07-19,4.06a45.79,45.79,0,0,1-14.22-2A48.15,48.15,0,0,1,0,90.38L7.88,77.64a32.6,32.6,0,0,0,8.36,4.29,29.32,29.32,0,0,0,8.93,1.26,15.12,15.12,0,0,0,11.41-4.51q4.37-4.5,4.36-13.21V24.41H14.07V9.27H61.56Z"/><path class="cls-1" d="M116.6,56.33h8.77v15H116.6V89.63H97.49l-.13-18.35H61.16V58L85.44,0l17,6.24L81.72,56.33H97.43l2.33-21.07H116.6Z"/><path class="cls-1" d="M162.53,102.23Q158,115.79,149,122.63t-24,7.67l-2.27-14.07a44.79,44.79,0,0,0,10.62-2.43,17.25,17.25,0,0,0,6.57-4.35,25.39,25.39,0,0,0,4.38-7.22h-6.81l-21.26-67H137.3l13,54.24,14.13-54.24h20.44Z"/><path class="cls-1" d="M202.16,90.71a5.07,5.07,0,0,0,3-4.69,5.41,5.41,0,0,0-1.2-3.63,11.32,11.32,0,0,0-4.48-2.71,104.23,104.23,0,0,0-10.21-3.19q-10.1-2.71-15.43-7.44t-5.33-13.12a17.87,17.87,0,0,1,3.38-10.73,22,22,0,0,1,9.93-7.31,42,42,0,0,1,15.77-2.65q16,0,27.12,8.14l-7.94,11.73a41.66,41.66,0,0,0-9.12-4.17,31.45,31.45,0,0,0-9.49-1.51q-4.86,0-7.22,1.29a4.18,4.18,0,0,0-2.37,3.88,4,4,0,0,0,1.23,3A13.85,13.85,0,0,0,194.28,60q3.25,1.26,10.12,3.21a59.11,59.11,0,0,1,11.8,4.45,17.33,17.33,0,0,1,9.65,16.75,18.05,18.05,0,0,1-4.26,12.08,25.93,25.93,0,0,1-11.45,7.54,48,48,0,0,1-15.95,2.52,50.25,50.25,0,0,1-16.91-2.68,40,40,0,0,1-12.93-7.41l10-11.23a34.28,34.28,0,0,0,9.15,5.17,29.42,29.42,0,0,0,10.53,1.89A17.08,17.08,0,0,0,202.16,90.71Z"/><text class="cls-2" transform="translate(73.44 128.77)">2.0 auth</text></g></g></svg>